<?xml version="1.0" encoding="UTF-8" standalone="no"?>
<svg
   height="200"
   viewBox="0 0 260 200"
   width="260"
   version="1.1"
   id="svg20"
   sodipodi:docname="help.svg"
   inkscape:version="1.3.2 (091e20ef0f, 2023-11-25)"
   xml:space="preserve"
   inkscape:export-filename="welcome.png"
   inkscape:export-xdpi="96"
   inkscape:export-ydpi="96"
   xmlns:inkscape="http://www.inkscape.org/namespaces/inkscape"
   xmlns:sodipodi="http://sodipodi.sourceforge.net/DTD/sodipodi-0.dtd"
   xmlns:xlink="http://www.w3.org/1999/xlink"
   xmlns="http://www.w3.org/2000/svg"
   xmlns:svg="http://www.w3.org/2000/svg"
   xmlns:rdf="http://www.w3.org/1999/02/22-rdf-syntax-ns#"
   xmlns:cc="http://creativecommons.org/ns#"
   xmlns:dc="http://purl.org/dc/elements/1.1/"><sodipodi:namedview
     id="namedview20"
     pagecolor="#ffffff"
     bordercolor="#000000"
     borderopacity="0.25"
     inkscape:showpageshadow="2"
     inkscape:pageopacity="0.0"
     inkscape:pagecheckerboard="0"
     inkscape:deskcolor="#d1d1d1"
     inkscape:zoom="1.4041707"
     inkscape:cx="101.48339"
     inkscape:cy="127.83346"
     inkscape:window-width="1920"
     inkscape:window-height="1011"
     inkscape:window-x="0"
     inkscape:window-y="0"
     inkscape:window-maximized="1"
     inkscape:current-layer="svg20" /><defs
     id="defs2"><linearGradient
       id="linearGradient24"><stop
         style="stop-color:#1c71d8;stop-opacity:1;"
         offset="0"
         id="stop19" /><stop
         style="stop-color:#62a0ea;stop-opacity:1;"
         offset="0.0455"
         id="stop20" /><stop
         style="stop-color:#1c71d8;stop-opacity:1;"
         offset="0.0909"
         id="stop21" /><stop
         style="stop-color:#1c71d8;stop-opacity:1;"
         offset="0.9091"
         id="stop22" /><stop
         style="stop-color:#62a0ea;stop-opacity:1;"
         offset="0.95450002"
         id="stop23" /><stop
         style="stop-color:#1c71d8;stop-opacity:1;"
         offset="1"
         id="stop24" /></linearGradient><linearGradient
       id="linearGradient18"><stop
         style="stop-color:#557ad6;stop-opacity:1;"
         offset="0"
         id="stop13" /><stop
         style="stop-color:#5659d7;stop-opacity:1;"
         offset="0.0455"
         id="stop14" /><stop
         style="stop-color:#5573d6;stop-opacity:1;"
         offset="0.0909"
         id="stop15" /><stop
         style="stop-color:#556fd4;stop-opacity:1;"
         offset="0.9091"
         id="stop16" /><stop
         style="stop-color:#6a6ddc;stop-opacity:1;"
         offset="0.95450002"
         id="stop17" /><stop
         style="stop-color:#5255c7;stop-opacity:1;"
         offset="1"
         id="stop18" /></linearGradient><clipPath
       clipPathUnits="userSpaceOnUse"
       id="Q"><path
         style="display:inline;opacity:1;vector-effect:none;fill:none;fill-opacity:1;stroke:#000000;stroke-width:4;stroke-linecap:round;stroke-linejoin:round;stroke-miterlimit:4;stroke-dasharray:none;stroke-dashoffset:0;stroke-opacity:1;marker:none;marker-start:none;marker-mid:none;marker-end:none;paint-order:normal;enable-background:new"
         d="m 64,-148 h 64 l 64,-64 64,64 h 192 c 17.728,0 32,14.272 32,32 v 288 c 0,17.728 -14.272,32 -32,32 H 256 l -64,-64 -64,64 H 64 C 46.272,204 32,189.728 32,172 v -288 c 0,-17.728 14.409,-34.199 32,-32 z"
         id="path1" /></clipPath><filter
       id="C"
       color-interpolation-filters="sRGB"
       x="0"
       y="0"
       width="1"
       height="1.057"><feFlood
         flood-opacity=".2"
         flood-color="#000"
         result="flood"
         id="feFlood1" /><feComposite
         in="flood"
         in2="SourceGraphic"
         operator="in"
         result="composite1"
         id="feComposite1" /><feGaussianBlur
         in="composite1"
         result="blur"
         id="feGaussianBlur1" /><feOffset
         dy="3"
         result="offset"
         id="feOffset1" /><feComposite
         in="SourceGraphic"
         in2="offset"
         result="composite2"
         id="feComposite2" /></filter><clipPath
       clipPathUnits="userSpaceOnUse"
       id="Q-6"><path
         style="display:inline;opacity:1;vector-effect:none;fill:none;fill-opacity:1;stroke:#000000;stroke-width:4;stroke-linecap:round;stroke-linejoin:round;stroke-miterlimit:4;stroke-dasharray:none;stroke-dashoffset:0;stroke-opacity:1;marker:none;marker-start:none;marker-mid:none;marker-end:none;paint-order:normal;enable-background:new"
         d="m 64,-148 h 64 l 64,-64 64,64 h 192 c 17.728,0 32,14.272 32,32 v 288 c 0,17.728 -14.272,32 -32,32 H 256 l -64,-64 -64,64 H 64 C 46.272,204 32,189.728 32,172 v -288 c 0,-17.728 14.409,-34.199 32,-32 z"
         id="path1-7" /></clipPath><filter
       id="C-5"
       color-interpolation-filters="sRGB"
       x="0"
       y="0"
       width="1"
       height="1.057"><feFlood
         flood-opacity=".2"
         flood-color="#000"
         result="flood"
         id="feFlood1-3" /><feComposite
         in="flood"
         in2="SourceGraphic"
         operator="in"
         result="composite1"
         id="feComposite1-5" /><feGaussianBlur
         in="composite1"
         result="blur"
         id="feGaussianBlur1-6" /><feOffset
         dy="3"
         result="offset"
         id="feOffset1-2" /><feComposite
         in="SourceGraphic"
         in2="offset"
         result="composite2"
         id="feComposite2-9" /></filter><clipPath
       clipPathUnits="userSpaceOnUse"
       id="E"><rect
         width="106.417"
         height="96.355003"
         x="512.92499"
         y="-137.026"
         rx="6.0760002"
         ry="6.0760002"
         fill="#9141ac"
         stroke-width="0"
         stroke-linejoin="round"
         id="rect2" /></clipPath><clipPath
       id="U"
       clipPathUnits="userSpaceOnUse"><circle
         style="marker:none"
         cx="239.05099"
         cy="77.264"
         r="19.711"
         fill="#9141ac"
         stroke-width="0.529"
         stroke-linecap="round"
         id="circle2" /></clipPath><linearGradient
       id="linearGradient3372"><stop
         style="stop-opacity: 1; stop-color: rgb(179, 179, 179);"
         offset="0"
         id="stop3360" /><stop
         style="stop-opacity: 1; stop-color: rgb(207, 207, 207);"
         offset="0.036"
         id="stop3362" /><stop
         style="stop-opacity: 1; stop-color: rgb(196, 196, 196);"
         offset="0.071"
         id="stop3364" /><stop
         style="stop-opacity: 1; stop-color: rgb(194, 194, 194);"
         offset="0.929"
         id="stop3366" /><stop
         style="stop-opacity: 1; stop-color: rgb(203, 203, 203);"
         offset="0.964"
         id="stop3368" /><stop
         style="stop-opacity: 1; stop-color: rgb(180, 180, 180);"
         offset="1"
         id="stop3370" /></linearGradient><linearGradient
       id="linearGradient18609"
       gradientUnits="userSpaceOnUse"
       x1="8"
       y1="292"
       x2="120"
       y2="292"
       gradientTransform="matrix(1.131846,0,0,0.93199,-111.87906,-53.202535)"
       xlink:href="#linearGradient3372" /><linearGradient
       id="linearGradient3"
       x1="20"
       y1="236"
       x2="108"
       y2="236"
       gradientUnits="userSpaceOnUse"
       gradientTransform="translate(20.903118,-154.88492)"
       xlink:href="#linearGradient2" /><linearGradient
       id="linearGradient2"><stop
         style="stop-color:#c0bfbc;stop-opacity:1;"
         offset="0"
         id="stop2-6" /><stop
         style="stop-color:#deddda;stop-opacity:1"
         offset="0.0455"
         id="stop4-7" /><stop
         style="stop-color:#c0bfbc;stop-opacity:1;"
         offset="0.0909"
         id="stop5-5" /><stop
         style="stop-color:#c0bfbc;stop-opacity:1;"
         offset="0.9091"
         id="stop6-3" /><stop
         style="stop-color:#deddda;stop-opacity:1"
         offset="0.9545"
         id="stop7-5" /><stop
         style="stop-color:#c0bfbc;stop-opacity:1;"
         offset="1"
         id="stop3-6" /></linearGradient><linearGradient
       id="linearGradient3-6"
       x1="20"
       y1="236"
       x2="108"
       y2="236"
       gradientUnits="userSpaceOnUse"
       gradientTransform="matrix(1.296841,0,0,1.296841,-31.389456,-119.83154)"
       xlink:href="#linearGradient2-2" /><linearGradient
       id="linearGradient2-2"><stop
         style="stop-color:#bebebe;stop-opacity:1;"
         offset="0"
         id="stop2-9" /><stop
         style="stop-color:#dcdcdc;stop-opacity:1;"
         offset="0.0455"
         id="stop4-1" /><stop
         style="stop-color:#bebebe;stop-opacity:1;"
         offset="0.0909"
         id="stop5-2" /><stop
         style="stop-color:#bebebe;stop-opacity:1;"
         offset="0.9091"
         id="stop6-7" /><stop
         style="stop-color:#dcdcdc;stop-opacity:1;"
         offset="0.95450002"
         id="stop7-0" /><stop
         style="stop-color:#bebebe;stop-opacity:1;"
         offset="1"
         id="stop3-9" /></linearGradient></defs><linearGradient
     id="a"
     gradientTransform="matrix(-1.3438664,0,0,1.109221,134.0896,-217.1819)"
     gradientUnits="userSpaceOnUse"
     x1="7.999999"
     x2="112"
     y1="244"
     y2="244"><stop
       offset="0"
       style="stop-color: rgb(91, 102, 188);"
       id="stop2" /><stop
       offset="0.071"
       style="stop-color: rgb(113, 124, 210);"
       id="stop3" /><stop
       offset="0.143"
       style="stop-color: rgb(94, 105, 187);"
       id="stop4" /><stop
       offset="0.857"
       style="stop-color: rgb(86, 99, 189);"
       id="stop5" /><stop
       offset="0.929"
       style="stop-color: rgb(111, 123, 212);"
       id="stop6" /><stop
       offset="1"
       style="stop-color: rgb(91, 102, 189);"
       id="stop7" /></linearGradient><linearGradient
     id="b"
     gradientTransform="matrix(-1.1646837,0,0,1.1646837,123.65031,-232.93366)"
     gradientUnits="userSpaceOnUse"
     x1="31.462524"
     x2="39"
     y1="285.99725"
     y2="285.99725"><stop
       offset="0"
       style="stop-color: rgb(94, 105, 187);"
       id="stop8" /><stop
       offset="0.469"
       style="stop-color: rgb(88, 97, 180);"
       id="stop9" /><stop
       offset="1"
       style="stop-color: rgb(87, 100, 189);"
       id="stop10" /></linearGradient><clipPath
     id="clip-8"><path
       d="m 24,10 c -6.628906,0 -12,5.371094 -12,12 v 22 c 0,2.210938 1.789062,4 4,4 1.105469,0 2,0.894531 2,2 v 7 c 0,1.105469 -0.894531,2 -2,2 -2.210938,0 -4,1.789062 -4,4 v 2 h 24 v -2 c 0,-2.210938 -1.789062,-4 -4,-4 -1.105469,0 -2,-0.894531 -2,-2 v -7 c 0,-1.105469 0.894531,-2 2,-2 2.210938,0 4,-1.789062 4,-4 V 22 C 36,15.371094 30.628906,10 24,10 Z m 0,0"
       id="path14" /></clipPath><clipPath
     id="clip-10"><path
       d="m 24,10 c -6.628906,0 -12,5.371094 -12,12 v 22 c 0,2.210938 1.789062,4 4,4 1.105469,0 2,0.894531 2,2 v 7 c 0,1.105469 -0.894531,2 -2,2 -2.210938,0 -4,1.789062 -4,4 v 2 h 24 v -2 c 0,-2.210938 -1.789062,-4 -4,-4 -1.105469,0 -2,-0.894531 -2,-2 v -7 c 0,-1.105469 0.894531,-2 2,-2 2.210938,0 4,-1.789062 4,-4 V 22 C 36,15.371094 30.628906,10 24,10 Z m 0,0"
       id="path15" /></clipPath><clipPath
     id="clip-12"><path
       d="m 24,10 c -6.628906,0 -12,5.371094 -12,12 v 22 c 0,2.210938 1.789062,4 4,4 1.105469,0 2,0.894531 2,2 v 7 c 0,1.105469 -0.894531,2 -2,2 -2.210938,0 -4,1.789062 -4,4 v 2 h 24 v -2 c 0,-2.210938 -1.789062,-4 -4,-4 -1.105469,0 -2,-0.894531 -2,-2 v -7 c 0,-1.105469 0.894531,-2 2,-2 2.210938,0 4,-1.789062 4,-4 V 22 C 36,15.371094 30.628906,10 24,10 Z m 0,0"
       id="path16" /></clipPath><title
     id="title4162">Adwaita Icon Template</title><title
     id="bx-title-1">Adwaita Icon Template</title><metadata
     id="metadata1"><rdf:RDF><cc:Work
         rdf:about=""><dc:title>Adwaita Icon Template</dc:title></cc:Work></rdf:RDF></metadata><g
     id="g1"
     transform="matrix(0.13281955,0,0,0.13290484,-6.5311009,-24.309013)"><g
       id="g54"
       transform="matrix(8.1780962,-2.9765835,2.9765835,8.1780962,211.68209,391.82378)"><path
         id="rect25"
         style="fill:#f6d32d"
         d="m 104.05683,88.036296 v 19.404764 c 0,6.09242 -4.904735,10.99716 -10.997161,10.99716 H 34.940331 c -6.092426,0 -10.997159,-4.90474 -10.997159,-10.99716 V 88.036296 Z"
         sodipodi:nodetypes="csssscc" /><path
         id="rect1"
         style="fill:#f8e45c"
         d="m 34.939453,9.0390625 c -6.092413,0 -10.996094,4.9036795 -10.996094,10.9960935 v 85.404294 c 0,6.09242 4.903681,10.99805 10.996094,10.99805 h 58.121094 c 6.092413,0 10.996093,-4.90563 10.996093,-10.99805 V 20.035156 c 0,-6.092414 -4.90368,-10.9960935 -10.996093,-10.9960935 z m 22.830078,8.2343755 h 12.460938 c 2.530197,-10e-7 4.566406,2.038161 4.566406,4.568359 0,2.530197 -2.036209,4.566406 -4.566406,4.566406 H 57.769531 c -2.530197,0 -4.566406,-2.036209 -4.566406,-4.566406 0,-2.530198 2.036209,-4.568359 4.566406,-4.568359 z" /><rect
         style="fill:#f6f5f4;stroke-width:0.725233"
         id="rect26"
         width="60.490608"
         height="74.812469"
         x="33.754696"
         y="32.822445"
         rx="3.1312292"
         ry="0" /><rect
         style="fill:#ffffff;stroke-width:0.715473"
         id="rect24"
         width="60.490608"
         height="72.812469"
         x="33.754696"
         y="32.822445"
         rx="3.1312292"
         ry="0" /><path
         d="m 64,39.164569 c -1.628724,0 -2.950143,1.303165 -2.950143,2.909393 0,1.606227 1.321418,2.909391 2.950143,2.909391 1.628724,0 2.950142,-1.303164 2.950142,-2.909391 0,-1.606228 -1.321416,-2.909393 -2.950142,-2.909393 z m -1.475071,6.788584 c -2.450771,0 -4.425214,1.94717 -4.425214,4.364087 v 0.4849 c 0,1.075869 0.875824,1.939594 1.966761,1.939594 h 7.867049 c 1.090936,0 1.966759,-0.863725 1.966759,-1.939594 v -0.4849 c 0,-2.416917 -1.974444,-4.364087 -4.425214,-4.364087 z m 0,0"
         fill="#2e3436"
         id="path1-6"
         style="fill:#3f3f3f;fill-opacity:1;stroke-width:0.976565" /><path
         id="rect4"
         style="fill:#f6d32d;fill-opacity:1;stroke:none;stroke-width:11.5784;stroke-linecap:round;stroke-linejoin:round"
         d="m 57.769531,-15.824219 c -2.530197,0 -4.566406,-2.038162 -4.566406,-4.568359 v -1.449219 c 0,2.530198 2.036209,4.568359 4.566406,4.568359 h 12.460938 c 2.530197,10e-7 4.566406,-2.038161 4.566406,-4.568359 v 1.449219 c 0,2.530197 -2.036209,4.568359 -4.566406,4.568359 z"
         transform="scale(1,-1)" /><g
         id="g22"
         transform="matrix(0.49247737,0,0,0.49247737,-10.907952,47.97788)"
         style="fill:#3f3f3f;fill-opacity:0.230729"><g
           id="path1-0"
           transform="translate(62.918676,-57.63693)"
           style="fill:#3f3f3f;fill-opacity:0.230729"><path
             id="path37"
             style="color:#000000;fill:#3f3f3f;fill-opacity:0.230729;-inkscape-stroke:none"
             d="m 70.098982,86.058574 c -0.05896,-0.0022 -0.118546,-0.0015 -0.177734,0.002 h -0.0059 -0.0039 c -0.47558,0.03496 -0.921363,0.254108 -1.238281,0.613282 l -0.002,0.002 -7.179687,8.203125 -2.25,-2.25 c -0.702232,-0.702231 -1.860268,-0.702231 -2.5625,0 -0.339071,0.339073 -0.529297,0.798726 -0.529297,1.279297 0,0.480569 0.190225,0.942177 0.529297,1.28125 l 3.623046,3.623047 c 0.35148,0.351484 0.83382,0.547704 1.339844,0.527344 0.504703,-0.0149 0.973331,-0.239867 1.302734,-0.611329 l 0.002,-0.002 8.453125,-9.658203 c 0.321237,-0.364069 0.475119,-0.83899 0.447265,-1.3125 l -0.002,-0.0059 v -0.0039 C 71.810116,87.270493 71.590967,86.82471 71.231795,86.507793 70.913234,86.226708 70.511702,86.07376 70.098982,86.058574 Z" /></g><path
           d="M 140.89304,41.743412 V 28.162658 h 5.4323 q 1.53125,0 2.64323,0.546876 1.1211,0.537762 1.72266,1.540368 0.61068,0.993491 0.61068,2.369796 0,1.339846 -0.63802,2.324223 -0.63802,0.984376 -1.79558,1.522138 -1.14844,0.528646 -2.70703,0.528646 h -3.58204 v -2.251306 h 3.58204 q 0.73828,0 1.27604,-0.264323 0.53776,-0.264323 0.82943,-0.738283 0.29167,-0.483073 0.29167,-1.121095 0,-0.656252 -0.29167,-1.121096 -0.29167,-0.473959 -0.82943,-0.738283 -0.53776,-0.264323 -1.28516,-0.264323 h -2.45182 v 11.247416 z m 7.70184,0 -3.10808,-6.134126 h 2.94401 l 3.17188,6.134126 z m 8.34522,0.21875 q -1.45833,0 -2.54297,-0.638022 -1.07553,-0.647136 -1.67709,-1.786461 -0.59246,-1.139325 -0.59246,-2.597661 0,-1.476565 0.60158,-2.606776 0.61068,-1.139325 1.67707,-1.786461 1.06641,-0.647137 2.44273,-0.647137 1.06639,0 1.93229,0.364584 0.86589,0.35547 1.49479,1.02995 0.6289,0.665366 0.96614,1.576826 0.34636,0.91146 0.34636,2.014326 v 0.720054 h -8.50391 v -1.713545 h 7.20964 l -1.21224,0.410157 q 0,-0.729168 -0.26432,-1.257815 -0.26432,-0.528647 -0.75651,-0.811199 -0.48308,-0.291667 -1.15756,-0.291667 -0.66536,0 -1.14844,0.291667 -0.48307,0.282552 -0.74739,0.811199 -0.26433,0.528647 -0.26433,1.257815 v 1.166669 q 0,0.747397 0.26433,1.312502 0.27343,0.555991 0.78385,0.865887 0.51042,0.300782 1.23047,0.300782 0.52865,0 0.92969,-0.145834 0.41016,-0.154948 0.6836,-0.428386 0.28255,-0.282553 0.40104,-0.656251 h 2.45183 q -0.17318,0.957033 -0.8112,1.686201 -0.63802,0.729168 -1.60417,1.148439 -0.96615,0.410157 -2.13282,0.410157 z m 9.21291,-0.05469 q -0.95703,0 -1.70443,-0.319011 -0.7474,-0.319011 -1.17578,-0.957033 -0.42839,-0.647137 -0.42839,-1.60417 0,-0.811199 0.30078,-1.348961 0.30079,-0.546876 0.82032,-0.875001 0.52864,-0.33724 1.20313,-0.510418 0.6836,-0.173177 1.431,-0.236979 0.88411,-0.09115 1.40365,-0.173178 0.51953,-0.08203 0.74739,-0.236979 0.22787,-0.154949 0.22787,-0.464845 v -0.0638 q 0,-0.355469 -0.19141,-0.619793 -0.19141,-0.273438 -0.54688,-0.428386 -0.34635,-0.154948 -0.83854,-0.154948 -0.49219,0 -0.875,0.154948 -0.3737,0.154948 -0.59245,0.437501 -0.21875,0.282552 -0.25521,0.656251 h -2.52474 q 0.0638,-0.993491 0.58333,-1.722659 0.52865,-0.729168 1.47657,-1.121096 0.94792,-0.401043 2.26953,-0.401043 0.98438,0 1.75912,0.227865 0.77474,0.218751 1.30339,0.647137 0.53776,0.428386 0.8112,1.039064 0.27344,0.610679 0.27344,1.385419 v 6.526054 h -2.62501 v -1.358074 h -0.0365 q -0.25521,0.473959 -0.6289,0.811199 -0.3737,0.33724 -0.91146,0.528647 -0.53777,0.182292 -1.27605,0.182292 z m 0.7474,-1.868493 q 0.64715,0 1.11198,-0.23698 0.47396,-0.236979 0.72917,-0.647136 0.25522,-0.410157 0.25522,-0.92969 v -0.966147 q -0.1185,0.0638 -0.3099,0.127604 -0.19141,0.05469 -0.44662,0.109375 -0.2552,0.04557 -0.556,0.100261 -0.30078,0.05469 -0.61978,0.100261 -0.46485,0.07292 -0.83854,0.227865 -0.37371,0.145833 -0.59246,0.401042 -0.21875,0.246094 -0.21875,0.628907 0,0.337241 0.18229,0.583335 0.18229,0.246094 0.51953,0.373698 0.33725,0.127605 0.78386,0.127605 z m 10.41241,1.904951 q -1.25781,0 -2.19662,-0.628907 -0.93879,-0.628908 -1.45832,-1.759118 -0.51043,-1.13021 -0.51043,-2.634119 0,-1.48568 0.51953,-2.606776 0.52865,-1.13021 1.45834,-1.759118 0.9388,-0.638022 2.16928,-0.638022 0.6289,0 1.15755,0.173178 0.52864,0.164063 0.94791,0.501303 0.41928,0.33724 0.72918,0.856772 h 0.009 v -5.286468 h 2.67969 v 13.580754 h -2.64322 v -1.476562 h -0.009 q -0.28255,0.55599 -0.71094,0.938804 -0.41927,0.373698 -0.96615,0.55599 -0.54687,0.182292 -1.17578,0.182292 z m 0.69271,-2.187504 q 0.68361,0 1.1849,-0.346355 0.51043,-0.355469 0.79297,-0.993491 0.28255,-0.638022 0.28255,-1.494794 0,-0.865887 -0.28255,-1.494795 -0.28254,-0.638022 -0.79297,-0.984376 -0.50129,-0.35547 -1.1849,-0.35547 -0.64714,0 -1.13021,0.33724 -0.48307,0.337241 -0.75651,0.966148 -0.26431,0.628907 -0.26431,1.531253 0,0.902345 0.26431,1.540367 0.27344,0.628907 0.75651,0.966148 0.48307,0.328125 1.13021,0.328125 z"
           id="path5"
           style="font-weight:bold;font-size:18.6667px;font-family:'GNOME UI';-inkscape-font-specification:'GNOME UI Bold';text-align:center;letter-spacing:0.04px;word-spacing:-0.04px;text-anchor:middle;fill:#3f3f3f;fill-opacity:0.230729;stroke-width:0.6;stroke-linecap:round;stroke-linejoin:round" /><path
           d="m 142.21646,65.802655 -3.64584,-13.580753 h 2.98959 l 1.59506,6.744804 q 0.19141,0.838543 0.36458,1.677086 0.17318,0.838543 0.32813,1.677086 0.16406,0.838543 0.30989,1.686201 h -0.55599 q 0.16407,-0.847658 0.33724,-1.686201 0.17318,-0.838543 0.35547,-1.677086 0.1823,-0.838543 0.38282,-1.677086 l 1.6862,-6.744804 h 2.86198 l 1.66797,6.744804 q 0.20052,0.838543 0.38282,1.677086 0.1914,0.838543 0.36458,1.677086 0.17318,0.838543 0.33724,1.686201 h -0.57422 q 0.15495,-0.847658 0.3099,-1.686201 0.16406,-0.838543 0.33724,-1.677086 0.18229,-0.838543 0.36458,-1.677086 l 1.59506,-6.744804 h 2.9987 l -3.65495,13.580753 h -3.12631 l -1.9323,-7.410169 q -0.20052,-0.8112 -0.41015,-1.804691 -0.20053,-0.993491 -0.48308,-2.233077 h 0.76563 q -0.27344,1.239586 -0.47396,2.233077 -0.20052,0.993491 -0.41927,1.804691 l -1.91407,7.410169 z m 15.23404,0 v -9.625017 h 2.58855 v 1.640628 h 0.0273 q 0.26433,-0.865887 0.82943,-1.285159 0.56511,-0.419271 1.52214,-0.419271 0.23698,0 0.42839,0.0091 0.20052,0 0.36458,0.0091 v 2.287765 q -0.14583,-0.0091 -0.48307,-0.02734 -0.32813,-0.01823 -0.67448,-0.01823 -0.54688,0 -0.98438,0.255208 -0.4375,0.246095 -0.68359,0.738283 -0.2461,0.492188 -0.2461,1.221356 v 5.213551 z m 7.102,0 v -9.625017 h 2.68881 v 9.625017 z m 1.33985,-10.837259 q -0.66537,0 -1.10287,-0.401042 -0.4375,-0.410157 -0.4375,-1.02995 0,-0.619793 0.4375,-1.020835 0.4375,-0.410157 1.09375,-0.410157 0.66537,0 1.10287,0.410157 0.4375,0.401042 0.4375,1.020835 0,0.619793 -0.4375,1.02995 -0.4375,0.401042 -1.09375,0.401042 z m 8.95045,1.212242 v 2.105473 h -6.31642 v -2.105473 z m -4.65756,-2.625005 h 2.6888 v 9.278663 q 0,0.483074 0.19141,0.67448 0.20052,0.191407 0.7474,0.191407 0.22786,0 0.53776,0 0.31901,0 0.49219,0 v 2.105472 q -0.2461,0 -0.6836,0 -0.4375,0 -0.88412,0 -1.58594,0 -2.34245,-0.619792 -0.74739,-0.619793 -0.74739,-1.932296 z m 10.30666,12.468773 q -1.45833,0 -2.54297,-0.638022 -1.07552,-0.647137 -1.67709,-1.786462 -0.59244,-1.139325 -0.59244,-2.597661 0,-1.476565 0.60156,-2.606775 0.61068,-1.139325 1.67709,-1.786462 1.0664,-0.647136 2.44271,-0.647136 1.06641,0 1.93229,0.364584 0.86589,0.355469 1.4948,1.029949 0.6289,0.665366 0.96615,1.576826 0.34635,0.91146 0.34635,2.014327 v 0.720053 h -8.50392 v -1.713545 h 7.20965 l -1.21225,0.410157 q 0,-0.729168 -0.26432,-1.257814 -0.26432,-0.528647 -0.75651,-0.8112 -0.48307,-0.291667 -1.15755,-0.291667 -0.66537,0 -1.14844,0.291667 -0.48308,0.282553 -0.7474,0.8112 -0.26432,0.528646 -0.26432,1.257814 v 1.166669 q 0,0.747397 0.26432,1.312502 0.27344,0.555991 0.78385,0.865887 0.51042,0.300782 1.23048,0.300782 0.52864,0 0.92968,-0.145833 0.41016,-0.154949 0.6836,-0.428387 0.28255,-0.282552 0.40104,-0.656251 h 2.45183 q -0.17318,0.957033 -0.8112,1.686201 -0.63802,0.729168 -1.60417,1.14844 -0.96615,0.410157 -2.13282,0.410157 z"
           id="path6"
           style="font-weight:bold;font-size:18.6667px;font-family:'GNOME UI';-inkscape-font-specification:'GNOME UI Bold';text-align:center;letter-spacing:0.04px;word-spacing:-0.04px;text-anchor:middle;fill:#3f3f3f;fill-opacity:0.230729;stroke-width:0.6;stroke-linecap:round;stroke-linejoin:round" /><path
           d="M 141.62096,87.743411 V 74.162657 h 9.74351 v 2.406255 h -6.93621 v 3.144536 h 6.41668 v 2.342453 h -6.41668 v 3.281256 h 6.93621 v 2.406254 z m 10.48533,0 3.88282,-5.532562 -0.0547,1.194012 -3.59116,-5.286468 h 2.93491 l 0.84765,1.348961 q 0.36459,0.610678 0.69271,1.184898 0.32813,0.57422 0.65625,1.14844 H 156.618 q 0.34636,-0.57422 0.67448,-1.14844 0.32812,-0.57422 0.71094,-1.184898 l 0.86589,-1.348961 h 2.88933 l -3.6823,5.286468 0.0547,-1.194012 3.78254,5.532562 h -2.944 l -0.96615,-1.476565 q -0.35547,-0.601564 -0.6836,-1.14844 -0.32812,-0.55599 -0.66536,-1.111981 h 0.7474 q -0.34637,0.555991 -0.67448,1.111981 -0.32813,0.546876 -0.70183,1.14844 l -0.98437,1.476565 z m 14.92287,0.21875 q -1.45834,0 -2.54298,-0.638022 -1.07552,-0.647136 -1.67708,-1.786461 -0.59245,-1.139325 -0.59245,-2.597661 0,-1.476565 0.60156,-2.606776 0.61068,-1.139325 1.67709,-1.786461 1.0664,-0.647137 2.44271,-0.647137 1.06641,0 1.93229,0.364584 0.86589,0.355469 1.4948,1.02995 0.62891,0.665366 0.96615,1.576826 0.34635,0.91146 0.34635,2.014326 v 0.720054 h -8.50392 v -1.713545 h 7.20965 l -1.21224,0.410157 q 0,-0.729168 -0.26433,-1.257815 -0.26432,-0.528647 -0.75651,-0.811199 -0.48307,-0.291668 -1.15755,-0.291668 -0.66537,0 -1.14844,0.291668 -0.48308,0.282552 -0.7474,0.811199 -0.26432,0.528647 -0.26432,1.257815 v 1.166669 q 0,0.747397 0.26432,1.312502 0.27344,0.555991 0.78386,0.865887 0.51041,0.300782 1.23047,0.300782 0.52864,0 0.92969,-0.145834 0.41015,-0.154948 0.68359,-0.428386 0.28255,-0.282553 0.40104,-0.656251 h 2.45183 q -0.17318,0.957033 -0.8112,1.686201 -0.63802,0.729168 -1.60417,1.148439 -0.96615,0.410157 -2.13281,0.410157 z m 10.54001,0 q -1.4401,0 -2.53385,-0.628907 -1.08464,-0.638022 -1.69532,-1.768232 -0.60157,-1.139325 -0.60157,-2.625005 0,-1.494795 0.60157,-2.625005 0.61068,-1.139325 1.69532,-1.777347 1.09375,-0.638022 2.53385,-0.638022 0.94792,0 1.75001,0.282553 0.80208,0.273438 1.39453,0.783855 0.60156,0.510418 0.95703,1.212242 0.35547,0.69271 0.41928,1.540367 h -2.59767 q -0.0547,-0.373698 -0.20963,-0.67448 -0.14583,-0.300782 -0.38281,-0.519532 -0.23698,-0.218751 -0.56511,-0.33724 -0.31901,-0.11849 -0.72918,-0.11849 -0.67447,0 -1.15754,0.355469 -0.48308,0.346355 -0.7474,0.993492 -0.25521,0.638022 -0.25521,1.522138 0,0.875001 0.25521,1.513023 0.26432,0.638022 0.7474,0.993492 0.48307,0.346354 1.15754,0.346354 0.41016,0 0.72918,-0.118489 0.319,-0.11849 0.54687,-0.33724 0.23698,-0.218751 0.38281,-0.519533 0.14583,-0.309896 0.20965,-0.692709 h 2.61589 q -0.0456,0.838543 -0.40105,1.540367 -0.34635,0.69271 -0.94792,1.212242 -0.60157,0.519532 -1.41276,0.802085 -0.80208,0.282552 -1.75912,0.282552 z"
           id="path7"
           style="font-weight:bold;font-size:18.6667px;font-family:'GNOME UI';-inkscape-font-specification:'GNOME UI Bold';text-align:center;letter-spacing:0.04px;word-spacing:-0.04px;text-anchor:middle;fill:#3f3f3f;fill-opacity:0.230729;stroke-width:0.6;stroke-linecap:round;stroke-linejoin:round" /><g
           id="g3"
           transform="translate(62.918676,-33.63693)"
           style="fill:#3f3f3f;fill-opacity:0.230729"><path
             id="path3"
             style="color:#000000;fill:#3f3f3f;fill-opacity:0.230729;-inkscape-stroke:none"
             d="m 70.098982,86.058574 c -0.05896,-0.0022 -0.118546,-0.0015 -0.177734,0.002 h -0.0059 -0.0039 c -0.47558,0.03496 -0.921363,0.254108 -1.238281,0.613282 l -0.002,0.002 -7.179687,8.203125 -2.25,-2.25 c -0.702232,-0.702231 -1.860268,-0.702231 -2.5625,0 -0.339071,0.339073 -0.529297,0.798726 -0.529297,1.279297 0,0.480569 0.190225,0.942177 0.529297,1.28125 l 3.623046,3.623047 c 0.35148,0.351484 0.83382,0.547704 1.339844,0.527344 0.504703,-0.0149 0.973331,-0.239867 1.302734,-0.611329 l 0.002,-0.002 8.453125,-9.658203 c 0.321237,-0.364069 0.475119,-0.83899 0.447265,-1.3125 l -0.002,-0.0059 v -0.0039 C 71.810116,87.270493 71.590967,86.82471 71.231795,86.507793 70.913234,86.226708 70.511702,86.07376 70.098982,86.058574 Z" /></g><g
           id="g4"
           transform="translate(62.918676,-11.63693)"
           style="fill:#3f3f3f;fill-opacity:0.230729"><path
             id="path4"
             style="color:#000000;fill:#3f3f3f;fill-opacity:0.230729;-inkscape-stroke:none"
             d="m 70.098982,86.058574 c -0.05896,-0.0022 -0.118546,-0.0015 -0.177734,0.002 h -0.0059 -0.0039 c -0.47558,0.03496 -0.921363,0.254108 -1.238281,0.613282 l -0.002,0.002 -7.179687,8.203125 -2.25,-2.25 c -0.702232,-0.702231 -1.860268,-0.702231 -2.5625,0 -0.339071,0.339073 -0.529297,0.798726 -0.529297,1.279297 0,0.480569 0.190225,0.942177 0.529297,1.28125 l 3.623046,3.623047 c 0.35148,0.351484 0.83382,0.547704 1.339844,0.527344 0.504703,-0.0149 0.973331,-0.239867 1.302734,-0.611329 l 0.002,-0.002 8.453125,-9.658203 c 0.321237,-0.364069 0.475119,-0.83899 0.447265,-1.3125 l -0.002,-0.0059 v -0.0039 C 71.810116,87.270493 71.590967,86.82471 71.231795,86.507793 70.913234,86.226708 70.511702,86.07376 70.098982,86.058574 Z" /></g></g></g><g
       id="g55"
       transform="rotate(-10,328.03227,633.52886)"><path
         id="path22"
         style="fill:#33d17a;stroke-width:8.70294"
         d="m 712.85465,1399.7035 v 168.8787 c 0,53.022 -42.68558,95.7077 -95.70774,95.7077 H 111.33727 c -53.022017,0 -95.707743,-42.6857 -95.707743,-95.7077 v -168.8787 z"
         sodipodi:nodetypes="csssscc" /><path
         id="path23"
         style="fill:#57e389;stroke-width:8.70294"
         d="m 111.32968,712.19476 c -53.022009,0 -95.698369,42.67646 -95.698369,95.69843 v 743.26911 c 0,53.022 42.67636,95.7154 95.698369,95.7154 h 505.82481 c 53.02201,0 95.69852,-42.6934 95.69852,-95.7154 V 807.89319 c 0,-53.02197 -42.67651,-95.69843 -95.69852,-95.69843 z m 198.68897,71.66334 h 108.44687 c 22.02029,-2e-5 39.74127,17.738 39.74127,39.75819 0,22.02017 -17.72098,39.7412 -39.74127,39.7412 H 310.01865 c -22.02014,0 -39.74112,-17.72103 -39.74112,-39.7412 0,-22.02019 17.72098,-39.75819 39.74112,-39.75819 z" /><rect
         style="fill:#f6f5f4;stroke-width:6.31167"
         id="rect23"
         width="526.44659"
         height="651.08899"
         x="101.01883"
         y="919.1803"
         rx="27.250925"
         ry="0" /><rect
         style="fill:#ffffff;stroke-width:6.22672"
         id="rect27"
         width="526.44659"
         height="633.68317"
         x="101.01883"
         y="919.1803"
         rx="27.250925"
         ry="0" /><path
         d="m 364.24209,974.37546 c -14.17471,0 -25.67495,11.34139 -25.67495,25.32031 0,13.97893 11.50024,25.32023 25.67495,25.32023 14.1747,0 25.67494,-11.3413 25.67494,-25.32023 0,-13.97892 -11.50024,-25.32031 -25.67494,-25.32031 z m -12.8374,59.08074 c -21.32897,0 -38.51235,16.9461 -38.51235,37.9804 v 4.22 c 0,9.3633 7.62212,16.8802 17.11648,16.8802 h 68.46653 c 9.49436,0 17.11663,-7.5169 17.11663,-16.8802 v -4.22 c 0,-21.0343 -17.18353,-37.9804 -38.51235,-37.9804 z m 0,0"
         fill="#2e3436"
         id="path27"
         style="fill:#3f3f3f;fill-opacity:1;stroke-width:8.499" /><path
         id="path28"
         style="fill:#33d17a;fill-opacity:1;stroke:none;stroke-width:100.766;stroke-linecap:round;stroke-linejoin:round"
         d="m 310.01865,771.24562 c -22.02014,0 -39.74112,17.73801 -39.74112,39.75819 v 12.61248 c 0,-22.02019 17.72098,-39.75819 39.74112,-39.75819 h 108.44687 c 22.02029,-2e-5 39.74127,17.738 39.74127,39.75819 v -12.61248 c 0,-22.02018 -17.72098,-39.75819 -39.74127,-39.75819 z" /><g
         id="g35"
         transform="matrix(0.48326421,0,0,0.48326421,76.493413,48.237347)"
         style="fill:#3f3f3f;fill-opacity:0.288161"><g
           id="g29"
           transform="matrix(8.7029481,0,0,8.7029481,-180.75099,1578.1994)"
           style="fill:#3f3f3f;fill-opacity:0.288161"><path
             id="path29"
             style="color:#000000;fill:#3f3f3f;fill-opacity:0.288161;-inkscape-stroke:none"
             d="m 70.098982,86.058574 c -0.05896,-0.0022 -0.118546,-0.0015 -0.177734,0.002 h -0.0059 -0.0039 c -0.47558,0.03496 -0.921363,0.254108 -1.238281,0.613282 l -0.002,0.002 -7.179687,8.203125 -2.25,-2.25 c -0.702232,-0.702231 -1.860268,-0.702231 -2.5625,0 -0.339071,0.339073 -0.529297,0.798726 -0.529297,1.279297 0,0.480569 0.190225,0.942177 0.529297,1.28125 l 3.623046,3.623047 c 0.35148,0.351484 0.83382,0.547704 1.339844,0.527344 0.504703,-0.0149 0.973331,-0.239867 1.302734,-0.611329 l 0.002,-0.002 8.453125,-9.658203 c 0.321237,-0.364069 0.475119,-0.83899 0.447265,-1.3125 l -0.002,-0.0059 v -0.0039 C 71.810116,87.270493 71.590967,86.82471 71.231795,86.507793 70.913234,86.226708 70.511702,86.07376 70.098982,86.058574 Z" /></g><path
           d="m 497.85577,2443.1014 v -118.1927 h 47.27702 q 13.32653,0 23.00391,4.7595 9.75691,4.6802 14.99225,13.4058 5.31474,8.6463 5.31474,20.6242 0,11.6605 -5.55261,20.2276 -5.55276,8.567 -15.62694,13.247 -9.99479,4.6008 -23.55905,4.6008 h -31.17433 v -19.5929 h 31.17433 q 6.42517,0 11.10522,-2.3004 4.68021,-2.3004 7.21849,-6.4253 2.53843,-4.2042 2.53843,-9.7568 0,-5.7114 -2.53843,-9.7569 -2.53828,-4.1248 -7.21849,-6.4252 -4.68005,-2.3004 -11.18461,-2.3004 h -21.33803 v 97.8857 z m 67.02872,0 -27.04942,-53.3849 h 25.62157 l 27.60472,53.3849 z m 72.62802,1.9037 q -12.69171,0 -22.1312,-5.5526 -9.3604,-5.632 -14.59575,-15.5475 -5.1561,-9.9154 -5.1561,-22.6073 0,-12.8505 5.23549,-22.6866 5.31474,-9.9156 14.59545,-15.5476 9.28101,-5.632 21.25894,-5.632 9.28071,0 16.81661,3.173 7.5359,3.0937 13.00912,8.9636 5.47336,5.7906 8.4083,13.723 3.01433,7.9324 3.01433,17.5307 v 6.2666 h -74.00903 v -14.9129 h 62.74503 l -10.55008,3.5695 q 0,-6.346 -2.30025,-10.9466 -2.30041,-4.6008 -6.58395,-7.0599 -4.20416,-2.5384 -10.07418,-2.5384 -5.79064,0 -9.99479,2.5384 -4.20415,2.4591 -6.50456,7.0599 -2.3004,4.6006 -2.3004,10.9466 v 10.1535 q 0,6.5046 2.3004,11.4227 2.37965,4.8387 6.82183,7.5357 4.44218,2.6177 10.70871,2.6177 4.60081,0 8.09104,-1.2697 3.56962,-1.3484 5.94941,-3.7282 2.45904,-2.4591 3.49023,-5.7113 h 21.33818 q -1.50724,8.3289 -7.05985,14.6749 -5.55275,6.3459 -13.96106,9.9949 -8.40831,3.5695 -18.56187,3.5695 z m 80.17952,-0.4757 q -8.32892,0 -14.83348,-2.7763 -6.5047,-2.7765 -10.23281,-8.3291 -3.72825,-5.632 -3.72825,-13.9611 0,-7.0598 2.61767,-11.7399 2.61782,-4.7594 7.13924,-7.6151 4.60066,-2.9349 10.47069,-4.442 5.94941,-1.5073 12.45397,-2.0626 7.69438,-0.7939 12.21595,-1.5071 4.52142,-0.7136 6.50441,-2.0623 1.98314,-1.3485 1.98314,-4.0456 v -0.556 q 0,-3.0936 -1.66587,-5.394 -1.66573,-2.3798 -4.75945,-3.7282 -3.01418,-1.3485 -7.29772,-1.3485 -4.28354,0 -7.61514,1.3485 -3.2522,1.3484 -5.15595,3.8075 -1.9039,2.459 -2.22117,5.7114 h -21.97271 q 0.55604,-8.6464 5.07671,-14.9923 4.60081,-6.3459 12.85048,-9.7567 8.24983,-3.4904 19.7517,-3.4904 8.56694,0 15.30953,1.9831 6.74243,1.9038 11.34324,5.632 4.6802,3.7283 7.05985,9.043 2.37979,5.3146 2.37979,12.0572 v 56.7959 h -22.84527 v -11.8193 h -0.31815 q -2.22117,4.1249 -5.47337,7.0598 -3.25236,2.935 -7.93241,4.6008 -4.6802,1.5865 -11.10537,1.5865 z m 6.50455,-16.2615 q 5.63215,0 9.67753,-2.0624 4.12491,-2.0624 6.34592,-5.632 2.22116,-3.5696 2.22116,-8.091 v -8.4083 q -1.03178,0.556 -2.69706,1.1106 -1.66572,0.4757 -3.88689,0.9515 -2.22101,0.3969 -4.83883,0.8727 -2.61767,0.4757 -5.39383,0.8727 -4.04567,0.6348 -7.29787,1.9831 -3.25236,1.2697 -5.1561,3.4902 -1.90375,2.1418 -1.90375,5.4734 0,2.9349 1.58648,5.0767 1.58648,2.1418 4.52142,3.2524 2.93509,1.1106 6.82182,1.1106 z m 90.61869,16.5787 q -10.94658,0 -19.11701,-5.4733 -8.17028,-5.4734 -12.6917,-15.3096 -4.44233,-9.8361 -4.44233,-22.9245 0,-12.9298 4.52157,-22.6866 4.60081,-9.8362 12.69185,-15.3095 8.17028,-5.5528 18.87914,-5.5528 5.47322,0 10.07403,1.5073 4.60066,1.4272 8.24967,4.3627 3.64886,2.935 6.34593,7.4564 h 0.0743 v -46.0078 h 23.32132 v 118.1926 h -23.0039 v -12.8505 h -0.0743 q -2.45904,4.8389 -6.18729,8.1705 -3.64886,3.2522 -8.40831,4.8387 -4.75944,1.5864 -10.23281,1.5864 z m 6.02866,-19.0377 q 5.94942,0 10.31206,-3.0144 4.44232,-3.0935 6.90121,-8.6461 2.45904,-5.5528 2.45904,-13.0092 0,-7.5359 -2.45904,-13.0091 -2.45889,-5.5527 -6.90121,-8.5671 -4.36264,-3.0935 -10.31206,-3.0935 -5.632,0 -9.83615,2.9349 -4.20415,2.9349 -6.58395,8.4083 -2.30026,5.4734 -2.30026,13.3265 0,7.8531 2.30026,13.4057 2.3798,5.4733 6.58395,8.4083 4.20415,2.8557 9.83615,2.8557 z"
           id="path30"
           style="font-weight:bold;font-size:18.6667px;font-family:'GNOME UI';-inkscape-font-specification:'GNOME UI Bold';text-align:center;letter-spacing:0.04px;word-spacing:-0.04px;text-anchor:middle;fill:#3f3f3f;fill-opacity:0.288161;stroke-width:5.22177;stroke-linecap:round;stroke-linejoin:round" /><path
           d="m 509.37356,2652.4877 -31.72963,-118.1926 h 26.01824 l 13.88167,58.6997 q 1.66587,7.2978 3.17296,14.5956 1.50724,7.2978 2.8557,14.5956 1.42725,7.2978 2.69706,14.6749 h -4.83883 q 1.42725,-7.3771 2.93493,-14.6749 1.50724,-7.2978 3.09372,-14.5956 1.58648,-7.2978 3.3316,-14.5956 l 14.67499,-58.6997 h 24.90765 l 14.51621,58.6997 q 1.74511,7.2978 3.33174,14.5956 1.66572,7.2978 3.17281,14.5956 1.50724,7.2978 2.93509,14.6749 H 589.332 q 1.34846,-7.3771 2.69707,-14.6749 1.42725,-7.2978 2.93493,-14.5956 1.58648,-7.2978 3.17297,-14.5956 l 13.88167,-58.6997 h 26.09762 l -31.80886,118.1926 h -27.20821 l -16.81661,-64.4903 q -1.74511,-7.0598 -3.56962,-15.7061 -1.74511,-8.6463 -4.20415,-19.4344 h 6.66319 q -2.37965,10.7881 -4.12476,19.4344 -1.74512,8.6463 -3.64887,15.7061 l -16.65812,64.4903 z m 132.58097,0 v -83.766 h 22.52801 V 2583 h 0.23787 q 2.30056,-7.5358 7.21849,-11.1847 4.91822,-3.6489 13.24714,-3.6489 2.06238,0 3.72825,0.079 1.74511,0 3.17296,0.079 v 19.9103 q -1.26966,-0.079 -4.20415,-0.2378 -2.8557,-0.1587 -5.87003,-0.1587 -4.75944,0 -8.56694,2.2211 -3.80749,2.1417 -5.94926,6.4252 -2.14178,4.2835 -2.14178,10.6294 v 45.3733 z m 61.8084,0 v -83.766 h 23.40056 v 83.766 z m 11.66066,-94.3161 q -5.79079,0 -9.59828,-3.4902 -3.8075,-3.5696 -3.8075,-8.9636 0,-5.394 3.8075,-8.8843 3.80749,-3.5696 9.51888,-3.5696 5.79064,0 9.59813,3.5696 3.80765,3.4903 3.80765,8.8843 0,5.394 -3.80765,8.9636 -3.80749,3.4902 -9.51873,3.4902 z m 77.89532,10.5501 v 18.3238 h -54.97156 v -18.3238 z m -40.53459,-22.8453 h 23.40056 v 80.7517 q 0,4.2042 1.66572,5.87 1.74512,1.6658 6.50471,1.6658 1.98299,0 4.68005,0 2.77631,0 4.28355,0 v 18.3238 q -2.14192,0 -5.94942,0 -3.80749,0 -7.69438,0 -13.80243,0 -20.38623,-5.394 -6.50456,-5.394 -6.50456,-16.8167 z m 89.69841,108.5151 q -12.69185,0 -22.13135,-5.5527 -9.36025,-5.632 -14.59574,-15.5475 -5.15596,-9.9154 -5.15596,-22.6073 0,-12.8504 5.23535,-22.6866 5.31473,-9.9155 14.59574,-15.5475 9.28072,-5.632 21.25864,-5.632 9.28101,0 16.81661,3.173 7.5359,3.0936 13.00927,8.9636 5.47322,5.7906 8.40831,13.723 3.01432,7.9324 3.01432,17.5306 v 6.2666 h -74.00917 v -14.9129 h 62.74517 l -10.55022,3.5696 q 0,-6.3459 -2.30026,-10.9467 -2.30041,-4.6008 -6.58395,-7.0599 -4.20415,-2.5383 -10.07403,-2.5383 -5.79063,0 -9.99479,2.5383 -4.2043,2.4591 -6.50455,7.0599 -2.30041,4.6008 -2.30041,10.9467 v 10.1534 q 0,6.5046 2.30041,11.4227 2.37964,4.8387 6.82167,7.5357 4.44218,2.6177 10.70886,2.6177 4.60066,0 8.09089,-1.2692 3.56962,-1.3485 5.94942,-3.7282 2.45904,-2.4591 3.49023,-5.7113 h 21.33818 q -1.50724,8.329 -7.05985,14.6749 -5.55261,6.3459 -13.96107,9.9948 -8.4083,3.5696 -18.56172,3.5696 z"
           id="path31"
           style="font-weight:bold;font-size:18.6667px;font-family:'GNOME UI';-inkscape-font-specification:'GNOME UI Bold';text-align:center;letter-spacing:0.04px;word-spacing:-0.04px;text-anchor:middle;fill:#3f3f3f;fill-opacity:0.103715;stroke-width:5.22177;stroke-linecap:round;stroke-linejoin:round" /><path
           d="m 504.19084,2843.437 v -118.1926 h 84.79728 v 20.9415 h -60.36538 v 27.3667 h 55.84396 v 20.3863 h -55.84396 v 28.5566 h 60.36538 v 20.9415 z m 91.25337,0 33.79201,-48.1496 -0.47575,10.3914 -31.25373,-46.0079 h 25.54234 l 7.37711,11.74 q 3.17297,5.3147 6.02851,10.3121 2.8557,4.9974 5.71139,9.9948 h -7.4565 q 3.01448,-4.9974 5.87002,-9.9948 2.85555,-4.9974 6.18729,-10.3121 l 7.53575,-11.74 h 25.14568 l -32.04689,46.0079 0.47575,-10.3914 32.9193,48.1496 h -25.62143 l -8.40845,-12.8505 q -3.09357,-5.2354 -5.94927,-9.9948 -2.85555,-4.8388 -5.79063,-9.6775 h 6.50455 q -3.01433,4.8387 -5.86987,9.6775 -2.8557,4.7594 -6.10805,9.9948 l -8.56694,12.8505 z m 129.87292,1.9038 q -12.69185,0 -22.13135,-5.5527 -9.36025,-5.632 -14.5956,-15.5475 -5.1561,-9.9155 -5.1561,-22.6073 0,-12.8505 5.23535,-22.6866 5.31473,-9.9155 14.59559,-15.5475 9.28087,-5.632 21.25879,-5.632 9.28101,0 16.81661,3.1729 7.5359,3.0937 13.00927,8.9636 5.47337,5.7907 8.4083,13.7231 3.01433,7.9324 3.01433,17.5306 v 6.2665 h -74.00917 v -14.9128 h 62.74517 l -10.55008,3.5695 q 0,-6.3459 -2.3004,-10.9467 -2.30041,-4.6008 -6.58395,-7.0598 -4.20415,-2.5384 -10.07403,-2.5384 -5.79078,0 -9.99479,2.5384 -4.2043,2.459 -6.5047,7.0598 -2.30026,4.6008 -2.30026,10.9467 v 10.1535 q 0,6.5045 2.30026,11.4226 2.37979,4.8388 6.82197,7.5358 4.44203,2.6177 10.70871,2.6177 4.60066,0 8.09104,-1.2692 3.56947,-1.3485 5.94927,-3.7283 2.45904,-2.459 3.49023,-5.7113 h 21.33818 q -1.50724,8.329 -7.05985,14.675 -5.55276,6.3459 -13.96107,9.9948 -8.4083,3.5695 -18.56172,3.5695 z m 91.72912,0 q -12.53307,0 -22.05196,-5.4734 -9.43949,-5.5527 -14.75423,-15.3888 -5.23549,-9.9155 -5.23549,-22.8453 0,-13.0091 5.23549,-22.8453 5.31474,-9.9155 14.75423,-15.4681 9.51889,-5.5527 22.05196,-5.5527 8.24967,0 15.23028,2.459 6.98046,2.3797 12.13656,6.8219 5.23534,4.4421 8.32891,10.5501 3.09372,6.0286 3.64901,13.4057 h -22.60739 q -0.47575,-3.2523 -1.82436,-5.87 -1.26966,-2.6177 -3.33159,-4.5214 -2.06238,-1.9038 -4.91808,-2.935 -2.77645,-1.0312 -6.34607,-1.0312 -5.86988,0 -10.07403,3.0936 -4.20416,3.0143 -6.50456,8.6463 -2.22102,5.5527 -2.22102,13.2471 0,7.6151 2.22102,13.1678 2.3004,5.5527 6.50456,8.6463 4.20415,3.0143 10.07403,3.0143 3.56962,0 6.34607,-1.0312 2.77616,-1.0312 4.75929,-2.935 2.06253,-1.9038 3.3316,-4.5215 1.26966,-2.697 1.82465,-6.0286 h 22.76588 q -0.39695,7.2978 -3.49037,13.4058 -3.01418,6.0286 -8.24968,10.55 -5.23534,4.5215 -12.29519,6.9805 -6.98046,2.4591 -15.30952,2.4591 z"
           id="path32"
           style="font-weight:bold;font-size:18.6667px;font-family:'GNOME UI';-inkscape-font-specification:'GNOME UI Bold';text-align:center;letter-spacing:0.04px;word-spacing:-0.04px;text-anchor:middle;fill:#3f3f3f;fill-opacity:0.288161;stroke-width:5.22177;stroke-linecap:round;stroke-linejoin:round" /><g
           id="g34"
           transform="matrix(8.7029481,0,0,8.7029481,-180.75099,1978.535)"
           style="fill:#3f3f3f;fill-opacity:0.288161"><path
             id="path34"
             style="color:#000000;fill:#3f3f3f;fill-opacity:0.288161;-inkscape-stroke:none"
             d="m 70.098982,86.058574 c -0.05896,-0.0022 -0.118546,-0.0015 -0.177734,0.002 h -0.0059 -0.0039 c -0.47558,0.03496 -0.921363,0.254108 -1.238281,0.613282 l -0.002,0.002 -7.179687,8.203125 -2.25,-2.25 c -0.702232,-0.702231 -1.860268,-0.702231 -2.5625,0 -0.339071,0.339073 -0.529297,0.798726 -0.529297,1.279297 0,0.480569 0.190225,0.942177 0.529297,1.28125 l 3.623046,3.623047 c 0.35148,0.351484 0.83382,0.547704 1.339844,0.527344 0.504703,-0.0149 0.973331,-0.239867 1.302734,-0.611329 l 0.002,-0.002 8.453125,-9.658203 c 0.321237,-0.364069 0.475119,-0.83899 0.447265,-1.3125 l -0.002,-0.0059 v -0.0039 C 71.810116,87.270493 71.590967,86.82471 71.231795,86.507793 70.913234,86.226708 70.511702,86.07376 70.098982,86.058574 Z" /></g></g></g><g
       id="g56"
       transform="matrix(8.1780962,2.9765835,-2.9765835,8.1780962,-213.45992,-178.2135)"><path
         id="path44"
         style="fill:#3584e4"
         d="m 278.05683,88.036296 v 19.404764 c 0,6.09242 -4.90473,10.99716 -10.99716,10.99716 h -58.11934 c -6.09243,0 -10.99716,-4.90474 -10.99716,-10.99716 V 88.036296 Z"
         sodipodi:nodetypes="csssscc" /><path
         id="path45"
         style="fill:#62a0ea"
         d="m 208.93945,9.0390625 c -6.09241,0 -10.99609,4.9036795 -10.99609,10.9960935 v 85.404294 c 0,6.09242 4.90368,10.99805 10.99609,10.99805 h 58.1211 c 6.09241,0 10.99609,-4.90563 10.99609,-10.99805 V 20.035156 c 0,-6.092414 -4.90368,-10.9960935 -10.99609,-10.9960935 z m 22.83008,8.2343755 h 12.46094 c 2.5302,-10e-7 4.56641,2.038161 4.56641,4.568359 0,2.530197 -2.03621,4.566406 -4.56641,4.566406 h -12.46094 c -2.5302,0 -4.5664,-2.036209 -4.5664,-4.566406 0,-2.530198 2.0362,-4.568359 4.5664,-4.568359 z" /><rect
         style="fill:#f6f5f4;stroke-width:0.725233"
         id="rect45"
         width="60.490608"
         height="74.812469"
         x="207.7547"
         y="32.822445"
         rx="3.1312292"
         ry="0" /><rect
         style="fill:#ffffff;stroke-width:0.715473"
         id="rect46"
         width="60.490608"
         height="72.812469"
         x="207.7547"
         y="32.822445"
         rx="3.1312292"
         ry="0" /><path
         d="m 238,39.164569 c -1.62872,0 -2.95014,1.303165 -2.95014,2.909393 0,1.606227 1.32141,2.909391 2.95014,2.909391 1.62872,0 2.95014,-1.303164 2.95014,-2.909391 0,-1.606228 -1.32141,-2.909393 -2.95014,-2.909393 z m -1.47507,6.788584 c -2.45077,0 -4.42521,1.94717 -4.42521,4.364087 v 0.4849 c 0,1.075869 0.87582,1.939594 1.96676,1.939594 h 7.86705 c 1.09093,0 1.96675,-0.863725 1.96675,-1.939594 v -0.4849 c 0,-2.416917 -1.97444,-4.364087 -4.42521,-4.364087 z m 0,0"
         fill="#2e3436"
         id="path46"
         style="fill:#3f3f3f;fill-opacity:1;stroke-width:0.976565" /><path
         id="path47"
         style="fill:#3584e4;fill-opacity:1;stroke:none;stroke-width:11.5784;stroke-linecap:round;stroke-linejoin:round"
         d="m 231.76953,15.824219 c -2.5302,0 -4.5664,2.038162 -4.5664,4.568359 v 1.449219 c 0,-2.530198 2.0362,-4.568359 4.5664,-4.568359 h 12.46094 c 2.5302,-10e-7 4.56641,2.038161 4.56641,4.568359 v -1.449219 c 0,-2.530197 -2.03621,-4.568359 -4.56641,-4.568359 z" /><g
         id="g53"
         transform="matrix(0.47829086,0,0,0.47829086,165.24988,49.009376)"
         style="fill:#5d5d5d;fill-opacity:0.31544"><g
           id="g48"
           transform="translate(62.918676,-57.63693)"
           style="fill:#5d5d5d;fill-opacity:0.31544"><path
             id="path48"
             style="color:#000000;fill:#5d5d5d;fill-opacity:0.31544;-inkscape-stroke:none"
             d="m 70.098982,86.058574 c -0.05896,-0.0022 -0.118546,-0.0015 -0.177734,0.002 h -0.0059 -0.0039 c -0.47558,0.03496 -0.921363,0.254108 -1.238281,0.613282 l -0.002,0.002 -7.179687,8.203125 -2.25,-2.25 c -0.702232,-0.702231 -1.860268,-0.702231 -2.5625,0 -0.339071,0.339073 -0.529297,0.798726 -0.529297,1.279297 0,0.480569 0.190225,0.942177 0.529297,1.28125 l 3.623046,3.623047 c 0.35148,0.351484 0.83382,0.547704 1.339844,0.527344 0.504703,-0.0149 0.973331,-0.239867 1.302734,-0.611329 l 0.002,-0.002 8.453125,-9.658203 c 0.321237,-0.364069 0.475119,-0.83899 0.447265,-1.3125 l -0.002,-0.0059 v -0.0039 C 71.810116,87.270493 71.590967,86.82471 71.231795,86.507793 70.913234,86.226708 70.511702,86.07376 70.098982,86.058574 Z" /></g><path
           d="M 140.89304,41.743412 V 28.162658 h 5.4323 q 1.53125,0 2.64323,0.546876 1.1211,0.537762 1.72266,1.540368 0.61068,0.993491 0.61068,2.369796 0,1.339846 -0.63802,2.324223 -0.63802,0.984376 -1.79558,1.522138 -1.14844,0.528646 -2.70703,0.528646 h -3.58204 v -2.251306 h 3.58204 q 0.73828,0 1.27604,-0.264323 0.53776,-0.264323 0.82943,-0.738283 0.29167,-0.483073 0.29167,-1.121095 0,-0.656252 -0.29167,-1.121096 -0.29167,-0.473959 -0.82943,-0.738283 -0.53776,-0.264323 -1.28516,-0.264323 h -2.45182 v 11.247416 z m 7.70184,0 -3.10808,-6.134126 h 2.94401 l 3.17188,6.134126 z m 8.34522,0.21875 q -1.45833,0 -2.54297,-0.638022 -1.07553,-0.647136 -1.67709,-1.786461 -0.59246,-1.139325 -0.59246,-2.597661 0,-1.476565 0.60158,-2.606776 0.61068,-1.139325 1.67707,-1.786461 1.06641,-0.647137 2.44273,-0.647137 1.06639,0 1.93229,0.364584 0.86589,0.35547 1.49479,1.02995 0.6289,0.665366 0.96614,1.576826 0.34636,0.91146 0.34636,2.014326 v 0.720054 h -8.50391 v -1.713545 h 7.20964 l -1.21224,0.410157 q 0,-0.729168 -0.26432,-1.257815 -0.26432,-0.528647 -0.75651,-0.811199 -0.48308,-0.291667 -1.15756,-0.291667 -0.66536,0 -1.14844,0.291667 -0.48307,0.282552 -0.74739,0.811199 -0.26433,0.528647 -0.26433,1.257815 v 1.166669 q 0,0.747397 0.26433,1.312502 0.27343,0.555991 0.78385,0.865887 0.51042,0.300782 1.23047,0.300782 0.52865,0 0.92969,-0.145834 0.41016,-0.154948 0.6836,-0.428386 0.28255,-0.282553 0.40104,-0.656251 h 2.45183 q -0.17318,0.957033 -0.8112,1.686201 -0.63802,0.729168 -1.60417,1.148439 -0.96615,0.410157 -2.13282,0.410157 z m 9.21291,-0.05469 q -0.95703,0 -1.70443,-0.319011 -0.7474,-0.319011 -1.17578,-0.957033 -0.42839,-0.647137 -0.42839,-1.60417 0,-0.811199 0.30078,-1.348961 0.30079,-0.546876 0.82032,-0.875001 0.52864,-0.33724 1.20313,-0.510418 0.6836,-0.173177 1.431,-0.236979 0.88411,-0.09115 1.40365,-0.173178 0.51953,-0.08203 0.74739,-0.236979 0.22787,-0.154949 0.22787,-0.464845 v -0.0638 q 0,-0.355469 -0.19141,-0.619793 -0.19141,-0.273438 -0.54688,-0.428386 -0.34635,-0.154948 -0.83854,-0.154948 -0.49219,0 -0.875,0.154948 -0.3737,0.154948 -0.59245,0.437501 -0.21875,0.282552 -0.25521,0.656251 h -2.52474 q 0.0638,-0.993491 0.58333,-1.722659 0.52865,-0.729168 1.47657,-1.121096 0.94792,-0.401043 2.26953,-0.401043 0.98438,0 1.75912,0.227865 0.77474,0.218751 1.30339,0.647137 0.53776,0.428386 0.8112,1.039064 0.27344,0.610679 0.27344,1.385419 v 6.526054 h -2.62501 v -1.358074 h -0.0365 q -0.25521,0.473959 -0.6289,0.811199 -0.3737,0.33724 -0.91146,0.528647 -0.53777,0.182292 -1.27605,0.182292 z m 0.7474,-1.868493 q 0.64715,0 1.11198,-0.23698 0.47396,-0.236979 0.72917,-0.647136 0.25522,-0.410157 0.25522,-0.92969 v -0.966147 q -0.1185,0.0638 -0.3099,0.127604 -0.19141,0.05469 -0.44662,0.109375 -0.2552,0.04557 -0.556,0.100261 -0.30078,0.05469 -0.61978,0.100261 -0.46485,0.07292 -0.83854,0.227865 -0.37371,0.145833 -0.59246,0.401042 -0.21875,0.246094 -0.21875,0.628907 0,0.337241 0.18229,0.583335 0.18229,0.246094 0.51953,0.373698 0.33725,0.127605 0.78386,0.127605 z m 10.41241,1.904951 q -1.25781,0 -2.19662,-0.628907 -0.93879,-0.628908 -1.45832,-1.759118 -0.51043,-1.13021 -0.51043,-2.634119 0,-1.48568 0.51953,-2.606776 0.52865,-1.13021 1.45834,-1.759118 0.9388,-0.638022 2.16928,-0.638022 0.6289,0 1.15755,0.173178 0.52864,0.164063 0.94791,0.501303 0.41928,0.33724 0.72918,0.856772 h 0.009 v -5.286468 h 2.67969 v 13.580754 h -2.64322 v -1.476562 h -0.009 q -0.28255,0.55599 -0.71094,0.938804 -0.41927,0.373698 -0.96615,0.55599 -0.54687,0.182292 -1.17578,0.182292 z m 0.69271,-2.187504 q 0.68361,0 1.1849,-0.346355 0.51043,-0.355469 0.79297,-0.993491 0.28255,-0.638022 0.28255,-1.494794 0,-0.865887 -0.28255,-1.494795 -0.28254,-0.638022 -0.79297,-0.984376 -0.50129,-0.35547 -1.1849,-0.35547 -0.64714,0 -1.13021,0.33724 -0.48307,0.337241 -0.75651,0.966148 -0.26431,0.628907 -0.26431,1.531253 0,0.902345 0.26431,1.540367 0.27344,0.628907 0.75651,0.966148 0.48307,0.328125 1.13021,0.328125 z"
           id="path49"
           style="font-weight:bold;font-size:18.6667px;font-family:'GNOME UI';-inkscape-font-specification:'GNOME UI Bold';text-align:center;letter-spacing:0.04px;word-spacing:-0.04px;text-anchor:middle;fill:#5d5d5d;fill-opacity:0.31544;stroke-width:0.6;stroke-linecap:round;stroke-linejoin:round" /><path
           d="m 142.21646,65.802655 -3.64584,-13.580753 h 2.98959 l 1.59506,6.744804 q 0.19141,0.838543 0.36458,1.677086 0.17318,0.838543 0.32813,1.677086 0.16406,0.838543 0.30989,1.686201 h -0.55599 q 0.16407,-0.847658 0.33724,-1.686201 0.17318,-0.838543 0.35547,-1.677086 0.1823,-0.838543 0.38282,-1.677086 l 1.6862,-6.744804 h 2.86198 l 1.66797,6.744804 q 0.20052,0.838543 0.38282,1.677086 0.1914,0.838543 0.36458,1.677086 0.17318,0.838543 0.33724,1.686201 h -0.57422 q 0.15495,-0.847658 0.3099,-1.686201 0.16406,-0.838543 0.33724,-1.677086 0.18229,-0.838543 0.36458,-1.677086 l 1.59506,-6.744804 h 2.9987 l -3.65495,13.580753 h -3.12631 l -1.9323,-7.410169 q -0.20052,-0.8112 -0.41015,-1.804691 -0.20053,-0.993491 -0.48308,-2.233077 h 0.76563 q -0.27344,1.239586 -0.47396,2.233077 -0.20052,0.993491 -0.41927,1.804691 l -1.91407,7.410169 z m 15.23404,0 v -9.625017 h 2.58855 v 1.640628 h 0.0273 q 0.26433,-0.865887 0.82943,-1.285159 0.56511,-0.419271 1.52214,-0.419271 0.23698,0 0.42839,0.0091 0.20052,0 0.36458,0.0091 v 2.287765 q -0.14583,-0.0091 -0.48307,-0.02734 -0.32813,-0.01823 -0.67448,-0.01823 -0.54688,0 -0.98438,0.255208 -0.4375,0.246095 -0.68359,0.738283 -0.2461,0.492188 -0.2461,1.221356 v 5.213551 z m 7.102,0 v -9.625017 h 2.68881 v 9.625017 z m 1.33985,-10.837259 q -0.66537,0 -1.10287,-0.401042 -0.4375,-0.410157 -0.4375,-1.02995 0,-0.619793 0.4375,-1.020835 0.4375,-0.410157 1.09375,-0.410157 0.66537,0 1.10287,0.410157 0.4375,0.401042 0.4375,1.020835 0,0.619793 -0.4375,1.02995 -0.4375,0.401042 -1.09375,0.401042 z m 8.95045,1.212242 v 2.105473 h -6.31642 v -2.105473 z m -4.65756,-2.625005 h 2.6888 v 9.278663 q 0,0.483074 0.19141,0.67448 0.20052,0.191407 0.7474,0.191407 0.22786,0 0.53776,0 0.31901,0 0.49219,0 v 2.105472 q -0.2461,0 -0.6836,0 -0.4375,0 -0.88412,0 -1.58594,0 -2.34245,-0.619792 -0.74739,-0.619793 -0.74739,-1.932296 z m 10.30666,12.468773 q -1.45833,0 -2.54297,-0.638022 -1.07552,-0.647137 -1.67709,-1.786462 -0.59244,-1.139325 -0.59244,-2.597661 0,-1.476565 0.60156,-2.606775 0.61068,-1.139325 1.67709,-1.786462 1.0664,-0.647136 2.44271,-0.647136 1.06641,0 1.93229,0.364584 0.86589,0.355469 1.4948,1.029949 0.6289,0.665366 0.96615,1.576826 0.34635,0.91146 0.34635,2.014327 v 0.720053 h -8.50392 v -1.713545 h 7.20965 l -1.21225,0.410157 q 0,-0.729168 -0.26432,-1.257814 -0.26432,-0.528647 -0.75651,-0.8112 -0.48307,-0.291667 -1.15755,-0.291667 -0.66537,0 -1.14844,0.291667 -0.48308,0.282553 -0.7474,0.8112 -0.26432,0.528646 -0.26432,1.257814 v 1.166669 q 0,0.747397 0.26432,1.312502 0.27344,0.555991 0.78385,0.865887 0.51042,0.300782 1.23048,0.300782 0.52864,0 0.92968,-0.145833 0.41016,-0.154949 0.6836,-0.428387 0.28255,-0.282552 0.40104,-0.656251 h 2.45183 q -0.17318,0.957033 -0.8112,1.686201 -0.63802,0.729168 -1.60417,1.14844 -0.96615,0.410157 -2.13282,0.410157 z"
           id="path50"
           style="font-weight:bold;font-size:18.6667px;font-family:'GNOME UI';-inkscape-font-specification:'GNOME UI Bold';text-align:center;letter-spacing:0.04px;word-spacing:-0.04px;text-anchor:middle;fill:#5d5d5d;fill-opacity:0.11389;stroke-width:0.6;stroke-linecap:round;stroke-linejoin:round" /><path
           d="M 141.62096,87.743411 V 74.162657 h 9.74351 v 2.406255 h -6.93621 v 3.144536 h 6.41668 v 2.342453 h -6.41668 v 3.281256 h 6.93621 v 2.406254 z m 10.48533,0 3.88282,-5.532562 -0.0547,1.194012 -3.59116,-5.286468 h 2.93491 l 0.84765,1.348961 q 0.36459,0.610678 0.69271,1.184898 0.32813,0.57422 0.65625,1.14844 H 156.618 q 0.34636,-0.57422 0.67448,-1.14844 0.32812,-0.57422 0.71094,-1.184898 l 0.86589,-1.348961 h 2.88933 l -3.6823,5.286468 0.0547,-1.194012 3.78254,5.532562 h -2.944 l -0.96615,-1.476565 q -0.35547,-0.601564 -0.6836,-1.14844 -0.32812,-0.55599 -0.66536,-1.111981 h 0.7474 q -0.34637,0.555991 -0.67448,1.111981 -0.32813,0.546876 -0.70183,1.14844 l -0.98437,1.476565 z m 14.92287,0.21875 q -1.45834,0 -2.54298,-0.638022 -1.07552,-0.647136 -1.67708,-1.786461 -0.59245,-1.139325 -0.59245,-2.597661 0,-1.476565 0.60156,-2.606776 0.61068,-1.139325 1.67709,-1.786461 1.0664,-0.647137 2.44271,-0.647137 1.06641,0 1.93229,0.364584 0.86589,0.355469 1.4948,1.02995 0.62891,0.665366 0.96615,1.576826 0.34635,0.91146 0.34635,2.014326 v 0.720054 h -8.50392 v -1.713545 h 7.20965 l -1.21224,0.410157 q 0,-0.729168 -0.26433,-1.257815 -0.26432,-0.528647 -0.75651,-0.811199 -0.48307,-0.291668 -1.15755,-0.291668 -0.66537,0 -1.14844,0.291668 -0.48308,0.282552 -0.7474,0.811199 -0.26432,0.528647 -0.26432,1.257815 v 1.166669 q 0,0.747397 0.26432,1.312502 0.27344,0.555991 0.78386,0.865887 0.51041,0.300782 1.23047,0.300782 0.52864,0 0.92969,-0.145834 0.41015,-0.154948 0.68359,-0.428386 0.28255,-0.282553 0.40104,-0.656251 h 2.45183 q -0.17318,0.957033 -0.8112,1.686201 -0.63802,0.729168 -1.60417,1.148439 -0.96615,0.410157 -2.13281,0.410157 z m 10.54001,0 q -1.4401,0 -2.53385,-0.628907 -1.08464,-0.638022 -1.69532,-1.768232 -0.60157,-1.139325 -0.60157,-2.625005 0,-1.494795 0.60157,-2.625005 0.61068,-1.139325 1.69532,-1.777347 1.09375,-0.638022 2.53385,-0.638022 0.94792,0 1.75001,0.282553 0.80208,0.273438 1.39453,0.783855 0.60156,0.510418 0.95703,1.212242 0.35547,0.69271 0.41928,1.540367 h -2.59767 q -0.0547,-0.373698 -0.20963,-0.67448 -0.14583,-0.300782 -0.38281,-0.519532 -0.23698,-0.218751 -0.56511,-0.33724 -0.31901,-0.11849 -0.72918,-0.11849 -0.67447,0 -1.15754,0.355469 -0.48308,0.346355 -0.7474,0.993492 -0.25521,0.638022 -0.25521,1.522138 0,0.875001 0.25521,1.513023 0.26432,0.638022 0.7474,0.993492 0.48307,0.346354 1.15754,0.346354 0.41016,0 0.72918,-0.118489 0.319,-0.11849 0.54687,-0.33724 0.23698,-0.218751 0.38281,-0.519533 0.14583,-0.309896 0.20965,-0.692709 h 2.61589 q -0.0456,0.838543 -0.40105,1.540367 -0.34635,0.69271 -0.94792,1.212242 -0.60157,0.519532 -1.41276,0.802085 -0.80208,0.282552 -1.75912,0.282552 z"
           id="path51"
           style="font-weight:bold;font-size:18.6667px;font-family:'GNOME UI';-inkscape-font-specification:'GNOME UI Bold';text-align:center;letter-spacing:0.04px;word-spacing:-0.04px;text-anchor:middle;fill:#5d5d5d;fill-opacity:0.11389;stroke-width:0.6;stroke-linecap:round;stroke-linejoin:round" /></g></g></g></svg>
