<?xml version="1.0" encoding="UTF-8"?>
<svg height="16px" viewBox="0 0 16 16" width="16px" xmlns="http://www.w3.org/2000/svg">
    <path d="m 4.398438 0.0429688 c -0.953126 0 -1.722657 0.7695312 -1.722657 1.7226562 v 12.433594 c 0 0.953125 0.769531 1.71875 1.722657 1.71875 h 7.21875 c 0.957031 0 1.722656 -0.765625 1.722656 -1.71875 v -12.433594 c 0 -0.953125 -0.765625 -1.7226562 -1.722656 -1.7226562 z m 2.632812 1.3750002 h 1.953125 c 0.394531 0 0.714844 0.320312 0.714844 0.714843 c 0 0.398438 -0.320313 0.714844 -0.714844 0.714844 h -1.953125 c -0.394531 0 -0.714844 -0.316406 -0.714844 -0.714844 c 0 -0.394531 0.320313 -0.714843 0.714844 -0.714843 z m -2.527344 2.746093 h 7.007813 c 0.222656 0 0.40625 0.179688 0.40625 0.402344 v 9.089844 c 0 0.226562 -0.183594 0.40625 -0.40625 0.40625 h -7.007813 c -0.222656 0 -0.402344 -0.179688 -0.402344 -0.40625 v -9.089844 c 0 -0.222656 0.179688 -0.402344 0.402344 -0.402344 z m 0 0"/>
    <path d="m 8.007812 6.085938 c -0.691406 0 -1.253906 0.550781 -1.253906 1.234374 c 0 0.683594 0.5625 1.238282 1.253906 1.238282 c 0.691407 0 1.253907 -0.554688 1.253907 -1.238282 c 0 -0.683593 -0.5625 -1.234374 -1.253907 -1.234374 z m -0.625 2.882812 c -1.042968 0 -1.882812 0.828125 -1.882812 1.855469 v 0.207031 c 0 0.457031 0.371094 0.824219 0.835938 0.824219 h 3.34375 c 0.464843 0 0.835937 -0.367188 0.835937 -0.824219 v -0.207031 c 0 -1.027344 -0.839844 -1.855469 -1.878906 -1.855469 z m 0 0"/>
</svg>
